<svg width="145.096" height="146.683" viewBox="0 0 108.82 110.03" xmlns="http://www.w3.org/2000/svg" xmlns:xlink="http://www.w3.org/1999/xlink" id="design" overflow="hidden"><defs></defs><path d="M108.35 15.53C109.55 16.51 106.97 23.23 106.12 24.44 105.59 25.2 103.68 27.19 102.35 28.55L98.5 28.55 100.99 22.69 101.79 21.64C102.4 21.42 103.13 21.13 103.82 21.05 105.33 20.87 107.16 14.55 108.36 15.53Z" fill="#E4B8B7"/><path d="M97.03 28.55 102.76 28.55C102.76 28.55 96.93 46.13 95.99 47.61 95.04 49.1 91.24 53.55 87.32 54.98 83.4 56.4 61.78 64.49 61.78 64.49L60.83 104.7C60.83 104.7 55.61 106.5 49.65 107.76L57.86 58.31 66.12 50.52C70.7 49.87 77.35 48.93 80.52 48.43L84.88 50.08 87.39 41.05C91.37 35.45 96.22 28.57 96.22 28.57L97.02 28.57Z" fill="#E8F1EE"/><path d="M101.78 21.65 100.98 22.7 98.49 28.56 97.03 28.56C97.36 26.8 98 23.12 97.83 22.22 97.61 21.02 96.16 17.99 97.35 18.3 98.54 18.62 100.15 19.78 100.41 21.72 100.55 22.06 101.08 21.9 101.77 21.66Z" fill="#F2C3BF"/><path d="M87.4 41.03 84.89 50.06 80.53 48.41C81.61 48.25 82.29 48.12 82.34 48.08 82.47 47.99 84.74 44.8 87.41 41.02Z" fill="#DEE4E1"/><path d="M2.58 14.31 5.05 14.69 7.97 15.13C7.97 15.13 10.16 36.63 10.94 37.58 11.71 38.53 23.71 46.14 24.95 46.77 25.06 46.82 25.21 46.88 25.39 46.93L28.04 49.23 33.79 49.95 33.51 52.55 36.2 51.56 36.61 53.5 36.14 58.25 33.99 80.01 36.24 84.63 40.64 80.01 40.64 53.51 41.77 53.51 42.39 52.06 43.93 53.51 49.7 50.33 61.32 51.19C61.32 51.19 63.34 50.91 66.14 50.53L57.88 58.32 49.67 107.77C46.44 108.45 43 108.98 40.06 108.98 31.69 108.98 21.29 103.28 21.29 103.28 21.29 103.28 21.42 71.17 21.27 61.4L23.9 65.03 23.3 58.02 11.45 49.55C6.76 45.19 2.06 40.79 1.68 40.2 0.91 39.02 1.68 14.18 1.68 14.18L2.59 14.32Z" fill="#DAE4E1"/><path d="M56.67 31.28C57.24 34.5 56.35 37.76 54.54 39.77 56.1 32.67 53.64 27.27 52.1 24.75 54.46 26.55 56.25 28.94 56.67 31.28Z" fill="#1B2B32"/><path d="M50.96 37.59C50.91 37.25 50.58 36.12 48.24 35.32 45.45 34.37 40.28 28.55 40.28 28.55 35.28 29.33 33.53 32.21 33 33.44 32.85 33.8 32.8 34.01 32.8 34.01L32.8 36.62C32.8 36.62 30.78 33 31.02 29.49 31.26 25.99 37.77 21.41 42.98 21.77 45.93 21.36 49.39 22.67 52.11 24.75 53.64 27.27 56.11 32.68 54.55 39.77 53.52 40.92 52.17 41.65 50.63 41.73 50.63 41.73 51.27 41.59 51.9 41.12 52.5 40.69 53.08 39.99 53.16 38.88 53.23 37.78 52.75 37.46 52.22 37.42 51.63 37.38 50.99 37.69 50.99 37.69 50.99 37.69 50.99 37.65 50.98 37.58Z" fill="#243741"/><path d="M52.2 37.42C52.73 37.46 53.21 37.78 53.14 38.88 53.07 40 52.48 40.7 51.88 41.12 52.38 39.92 52.31 38.39 52.2 37.41Z" fill="#F8CBC9"/><path d="M45.15 46.12C44.19 46.51 43.27 46.78 42.64 46.77 41.03 46.72 37.12 45.93 35.47 45.59 34.85 44.97 32.79 42.59 32.79 38.66L32.79 34.03C32.79 34.03 32.84 33.81 32.99 33.46 34.4 32.62 37.31 31.02 38.49 31.36 40.07 31.81 48.54 37.82 49.36 38.13 49.85 38.31 50.5 37.95 50.95 37.61 50.96 37.68 50.96 37.72 50.96 37.72 50.96 37.72 51.61 37.41 52.19 37.45 52.31 38.42 52.37 39.96 51.87 41.16 51.24 41.62 50.6 41.77 50.6 41.77 50.6 41.77 49.11 43.13 48.58 43.91 48.49 44.05 48.41 44.3 48.34 44.61L48.34 44.61C47.44 45.1 46.26 45.7 45.14 46.15Z" fill="#F2C3BF"/><path d="M49.69 50.31 43.92 53.49 42.38 52.04 40.28 50.05C41.08 49.98 43.28 49.64 45.13 49.34 46.69 49.09 48 48.87 48 48.87L50.02 50.13 49.68 50.31Z" fill="#EFEFEF"/><path d="M50.96 37.59C50.51 37.93 49.85 38.29 49.37 38.11 48.55 37.8 40.08 31.79 38.5 31.34 37.32 31 34.41 32.6 33 33.44 33.53 32.21 35.28 29.33 40.28 28.55 40.28 28.55 45.45 34.37 48.24 35.32 50.58 36.12 50.91 37.25 50.96 37.59Z" fill="#E4B8B7"/><path d="M48 48.87C48 48.87 46.69 49.09 45.13 49.34 45.14 48.38 45.15 47.08 45.15 46.12 46.27 45.67 47.45 45.07 48.35 44.58 48.04 46.02 48 48.87 48 48.87Z" fill="#F8CBC9"/><path d="M45.15 46.12C45.15 47.08 45.15 48.38 45.13 49.34 43.28 49.64 41.08 49.99 40.28 50.05 38.79 50.17 36 49.22 36 49.22L35.75 46.76 35.64 45.74C35.64 45.74 35.57 45.69 35.47 45.58 37.12 45.93 41.03 46.72 42.64 46.76 43.27 46.77 44.19 46.5 45.15 46.11Z" fill="#E4B8B7"/><path d="M40.64 53.49 36.6 53.49 36.19 51.56 40.28 50.05 42.38 52.04 41.76 53.49 40.64 53.49Z" fill="#263469"/><path d="M40.64 56.23 40.64 80 36.24 84.62 33.99 80 36.13 58.24 38.14 56.23 40.64 56.23Z" fill="#2E3B7D"/><path d="M40.64 53.49 40.64 56.23 38.14 56.23 36.13 58.24 36.6 53.49 40.64 53.49Z" fill="#2E3B7D"/><path d="M36.19 51.56 33.5 52.55 33.78 49.95 33.98 48.15 35.74 46.77 35.99 49.23C35.99 49.23 38.78 50.18 40.27 50.06L36.18 51.57Z" fill="#EFEFEF"/><path d="M33.99 48.15 33.79 49.95 28.04 49.23 25.39 46.93C27.44 47.52 33.98 48.15 33.98 48.15Z" fill="#CDD5D2"/><path d="M23.29 58.01 23.89 65.02 21.26 61.39C21.24 59.69 21.21 58.66 21.16 58.61 21.01 58.4 16.24 54 11.44 49.55L23.29 58.02Z" fill="#CDD5D2"/><path d="M12.66 5.42C13.2 6 10.43 8.67 9.55 9.78 8.65 10.89 7.98 15.13 7.98 15.13L5.06 14.69C4.41 11.77 4.52 8.32 4.73 5.87 5.31 6.94 5.81 7.65 5.81 7.65 5.81 7.65 7.28 8.58 8.22 7.47 9.91 5.28 12.14 4.84 12.67 5.42Z" fill="#E4B8B7"/><path d="M5.05 14.69 2.58 14.31C2.36 13.66 1.97 12.54 1.33 11.12 0.29 8.8-0.03 3.54 0.28 2.56 0.59 1.59 2.64-0.82 2.95 0.61 3.08 2.49 3.96 4.49 4.72 5.87 4.51 8.33 4.4 11.77 5.05 14.69Z" fill="#F2C3BF"/></svg>