<svg width="69.3921" height="122.494" viewBox="0 0 52.04 91.87" xmlns="http://www.w3.org/2000/svg" xmlns:xlink="http://www.w3.org/1999/xlink" id="design" overflow="hidden"><defs></defs><g><path d="M46.41 58.25C47.48 58.3 48.3 58.44 48.51 58.77 49.15 59.75 49.27 64.86 48.89 67.75 48.61 67.74 48.31 67.72 47.98 67.71 45.67 67.59 42.32 67.32 39.17 67.06L40.05 63.8 38.64 58.78C38.64 58.78 41.27 58.43 43.83 58.3 44.74 58.25 45.65 58.22 46.42 58.26Z" fill="#F2C3BF"/><path d="M9.02 74.8C10.49 74.8 12.99 74.73 15.85 74.35 20.34 73.76 25.73 72.41 29.48 69.38 34.87 69.85 43.55 70.61 47.99 70.99L47.99 87.98C47.99 87.98 38.56 91.7 27.67 91.7 20.58 91.7 13.25 90.2 9.02 89.16L9.02 74.81Z" fill="#E2E7E7"/><path d="M47.99 67.71 47.99 70.99C43.55 70.61 34.86 69.84 29.48 69.38 25.73 72.42 20.34 73.76 15.85 74.35L15.62 72.34C17.33 72.21 19.78 71.34 22.2 70.31 22.25 70.28 22.31 70.26 22.37 70.23 26.56 68.53 30.71 66.4 30.71 66.4L39.18 67.06C42.33 67.32 45.69 67.6 47.99 67.71Z" fill="#E2E7E7"/><path d="M42.34 35.15C43.26 35.42 46.36 45.53 46.4 58.25 45.63 58.22 44.73 58.24 43.81 58.29 43.65 53.53 43.15 40.49 42.33 35.15Z" fill="#CDD5D2"/><path d="M39.17 67.06 30.7 66.4C31.13 66.36 34.96 66.7 39.17 67.06Z" fill="#E2E7E7"/><path d="M34.7 58.06 31.94 34.27 32.48 31.76C34.48 33.37 36.34 35.15 36.34 35.15 36.34 35.15 37.23 29.57 37.05 29.2 36.99 29.08 36.72 28.64 36.2 28.07 39.5 28.15 45.39 28.69 47.8 31.43 51.23 35.33 52.03 53.01 52.03 58.77 52.03 64.53 51.77 67.24 50.8 67.7 50.63 67.78 49.93 67.79 48.88 67.75 49.26 64.86 49.14 59.74 48.5 58.77 48.29 58.44 47.47 58.3 46.4 58.25 46.35 45.52 43.25 35.42 42.34 35.15 43.16 40.5 43.66 53.53 43.82 58.29 41.27 58.42 38.63 58.77 38.63 58.77 38.63 58.77 37.05 58.34 34.7 58.06Z" fill="#DAE4E1"/><path d="M29.3 25.11C32.86 25.11 35.1 26.86 36.21 28.07 34.81 28.04 33.88 28.08 33.88 28.08L28.06 29.19 17.13 29.19C18.54 26.31 21.01 23.24 21.01 23.24 21.01 23.24 24.01 23.98 29.3 25.1Z" fill="#EFEFEF"/><path d="M34.7 58.06C33.11 57.86 31.17 57.74 29.11 57.85 28.54 57.88 27.86 57.98 27.1 58.14L27.1 35.16 31.76 35.16 31.95 34.28 34.71 58.07Z" fill="#2E3B7D"/><path d="M28.06 29.2 33.88 28.09C33.88 28.09 34.81 28.04 36.21 28.08 36.72 28.64 37 29.09 37.06 29.21 37.24 29.58 36.35 35.16 36.35 35.16 36.35 35.16 34.49 33.37 32.49 31.77 30.76 30.37 28.91 29.09 28.06 29.21Z" fill="#EFEFEF"/><path d="M27.1 35.15 25.51 31.56C26.38 30.36 27.33 29.31 28.06 29.2 28.91 29.08 30.76 30.35 32.49 31.76L31.95 34.27 31.76 35.15 27.1 35.15Z" fill="#263469"/><path d="M17.13 29.2 28.06 29.2C27.33 29.3 26.38 30.36 25.51 31.56 24.31 33.22 23.3 35.15 23.3 35.15 23.3 35.15 19.42 32.17 17.13 29.2Z" fill="#EFEFEF"/><path d="M30.7 66.4C30.7 66.4 26.54 68.52 22.36 70.23 26.29 68.55 30.13 66.46 30.7 66.4Z" fill="#E2E7E7"/><path d="M15.91 61.64 15.43 61.83C15.59 61.77 15.75 61.71 15.91 61.64Z" fill="#E2E7E7"/><path d="M15.61 72.34C15.46 72.34 15.32 72.35 15.19 72.35 16.77 72.32 19.48 71.4 22.19 70.3 19.77 71.33 17.32 72.2 15.61 72.33Z" fill="#E2E7E7"/><path d="M14.2 72.34C14.52 72.34 14.84 72.35 15.18 72.35 14.87 72.35 14.54 72.35 14.2 72.34Z" fill="#E2E7E7"/><path d="M15.43 61.82 10.77 63.65C11.48 63.35 13.23 62.64 15.43 61.82Z" fill="#E2E7E7"/><path d="M13.27 72.31C11.93 72.26 10.45 72.14 9.02 71.92L9.02 71.81C10.22 72.06 11.63 72.23 13.27 72.31Z" fill="#E2E7E7"/><path d="M15.19 72.35C15.33 72.35 15.46 72.35 15.61 72.34L15.84 74.35C12.98 74.73 10.49 74.8 9.01 74.8L9.01 71.92C10.44 72.14 11.93 72.26 13.26 72.31 13.56 72.32 13.87 72.33 14.19 72.34 14.54 72.35 14.86 72.35 15.17 72.35Z" fill="#E2E7E7"/><path d="M9.02 74.8 9.02 89.15C6.75 88.59 5.37 88.16 5.37 88.16L6.17 74.67 7.6 74.77C7.6 74.77 8.12 74.8 9.01 74.8Z" fill="#E2E7E7"/><path d="M9.02 71.92 9.02 74.8C8.13 74.8 7.61 74.77 7.61 74.77L6.18 74.67 6.38 71.35C7.2 71.58 8.11 71.77 9.02 71.91Z" fill="#E2E7E7"/><path d="M9.02 71.81 9.02 71.92C8.1 71.78 7.2 71.59 6.38 71.36L6.38 71.1C7.13 71.37 8 71.62 9.02 71.81Z" fill="#E2E7E7"/><path d="M7.15 55.24C10.42 55.74 15.67 57.23 15.91 61.64 15.75 61.7 15.58 61.76 15.43 61.83 13.23 62.65 11.48 63.37 10.77 63.66L10.43 63.8 6.55 63.24 6.55 63.21C6.55 63.21 4.59 54.98 4.59 54.98 4.59 54.98 5.66 55 7.16 55.23Z" fill="#F2C3BF"/><path d="M5.38 33.61C10.41 30.77 17.13 29.2 17.13 29.2 19.42 32.18 23.3 35.15 23.3 35.15 23.3 35.15 24.32 33.22 25.51 31.56L27.1 35.15 27.1 58.13C23.93 58.76 19.43 60.32 15.91 61.63 15.68 57.21 10.42 55.73 7.15 55.23 6.45 50.09 5.29 39.91 5.38 33.61Z" fill="#DAE4E1"/><path d="M4.59 54.99 6.54 63.22C6.44 62.95 5.48 60.38 4.59 54.99Z" fill="#E2E7E7"/><path d="M6.39 71.09 6.39 71.35C4.31 70.76 2.74 69.85 2.5 68.46 2.58 68.6 3.4 70.01 6.39 71.09Z" fill="#E2E7E7"/><path d="M5.38 33.61C5.29 39.91 6.45 50.09 7.15 55.23 5.66 55 4.58 54.98 4.58 54.98 3.83 50.47 3.13 43.95 3.01 35.15L3.01 35.15C3.72 34.59 4.52 34.08 5.37 33.6Z" fill="#E1E7E4"/><path d="M13.27 72.31C11.62 72.23 10.21 72.06 9.02 71.81 8 71.61 7.12 71.36 6.39 71.1 3.4 70.02 2.58 68.61 2.5 68.47 2.5 68.47 2.5 68.46 2.5 68.46 2.5 68.46 2.5 68.43 2.49 68.38 2.48 68.33 2.47 68.24 2.45 68.14 2.45 68.09 2.43 68.02 2.42 67.96 2.14 66.18 1.18 59.85 0.21 51.72 0.21 50.9 0.18 49.52 0.21 47.89 0.21 47.68 0.21 47.46 0.22 47.26 0.49 37.87 2.48 35.63 2.94 35.24 2.96 35.23 2.97 35.22 2.99 35.21 3.01 35.2 3.03 35.19 3.04 35.18 3.05 35.17 3.04 35.18 3.04 35.18 3.16 43.98 3.86 50.5 4.61 55.01 5.5 60.4 6.46 62.97 6.56 63.24L6.56 63.27C6.56 63.27 10.44 63.83 10.44 63.83L10.78 63.69 15.44 61.86 15.92 61.67C19.44 60.35 23.95 58.79 27.11 58.17 27.87 58.01 28.55 57.91 29.12 57.88 31.18 57.77 33.12 57.89 34.71 58.09 37.07 58.37 38.64 58.8 38.64 58.8L40.05 63.82 39.17 67.08C34.96 66.72 31.13 66.38 30.7 66.42 30.13 66.47 26.28 68.56 22.36 70.25 22.3 70.28 22.24 70.3 22.19 70.33 19.47 71.43 16.77 72.34 15.19 72.38 14.85 72.38 14.53 72.38 14.21 72.37 13.89 72.36 13.58 72.36 13.28 72.34Z" fill="#E2E7E7"/><path d="M3.02 35.15 3.02 35.15C3.02 35.15 3.02 35.15 3.02 35.15 3.02 35.15 3.02 35.15 3.02 35.15Z" fill="#E2E7E7"/><path d="M2.92 35.22C2.92 35.22 2.95 35.19 2.97 35.19 2.96 35.2 2.94 35.21 2.92 35.22Z" fill="#E2E7E7"/><path d="M2.48 68.37C2.47 68.29 2.45 68.21 2.44 68.13 2.46 68.23 2.47 68.32 2.48 68.37Z" fill="#E2E7E7"/><path d="M0.2 51.7C1.17 59.84 2.13 66.16 2.41 67.94 1.8 64.24 0.2 54.72 0.2 51.7Z" fill="#E2E7E7"/><path d="M2.92 35.22C2.46 35.62 0.48 37.86 0.2 47.24 0.28 42.68 0.75 36.59 2.92 35.22Z" fill="#E2E7E7"/><path d="M0.19 47.88C0.17 49.51 0.19 50.89 0.19 51.71 0.16 50.32 0.16 49.05 0.19 47.88Z" fill="#E2E7E7"/></g><path d="M12.39 19.9C12.39 19.9 14.53 21.57 18.16 21.57L20.58 23.24 20.58 27.7C20.58 27.7 25.04 29.19 28.02 29.19 31 29.19 31.74 27.7 31.74 27.7L31.74 24.54C31.74 24.54 32.3 22.44 33.04 21.73 33.78 21.02 35.18 18.96 35.27 16.36 35.36 13.76 32.06 5.12 32.06 5.12L20.58 3.34 14.81 8.73 12.39 19.89Z" fill="#F2C3BF"/><path d="M17.04 17.3C17.04 17.3 14.34 16 13.69 18.23 13.04 20.46 16.29 21.52 18.15 21.58 18.15 21.58 15.77 22.54 13.08 20.4 10.39 18.26 10.02 10.95 10.84 7.51 11.72 3.79 15.83 0.01 23.18 0.01 33.97 0.01 33.04 8.01 33.04 8.01 33.04 8.01 28.02 4.38 22.81 6.89 18.81 7.26 18.53 10.98 18.53 13.21 18.53 15.44 17.04 17.3 17.04 17.3Z" fill="#243741"/><path d="M6.37 71.35C6.37 71.35 13.55 72.39 15.19 72.35 16.83 72.31 29.21 66.68 29.96 66.54 30.71 66.4 39.18 67.06 39.18 67.06L47.99 67.72 38.64 68.31C38.64 68.31 31.06 68.17 29.96 68.22 28.86 68.27 14.93 73.94 14.53 73.99 14.13 74.04 6.19 74.47 6.19 74.47L6.37 71.37Z" fill="#CDD5D2"/><path d="M15.91 61.64C15.91 61.64 25.72 58.22 26.12 58.24 26.52 58.26 27.11 58.13 27.11 58.13L27.09 55.85 15.79 60.77 15.92 61.64Z" fill="#CDD5D2"/><path d="M4.59 54.99 5.66 40.24 6.59 55.15 4.59 54.99Z" fill="#CDD5D2"/><path d="M18.31 14.72C18.31 14.72 20.32 9.39 23.05 8.25 25.78 7.1 31.42 7.75 32.16 8.25 32.9 8.75 33.44 9.04 33.44 9.04L33.02 8C33.02 8 30.49 6.16 26.98 5.95 24.72 5.76 22.8 6.88 22.8 6.88 22.8 6.88 20.28 6.82 19.12 9.44 18.37 10.82 18.74 13.54 18.31 14.72Z" fill="#E4B8B7"/><path d="M14.69 17.05C14.69 17.05 13.06 20.75 18.15 21.58 18.15 21.58 13.84 21.3 13.61 18.94 13.55 18.16 13.79 17.36 14.69 17.05Z" fill="#E4B8B7"/><path d="M30.42 28.76 31.08 22.69 33.03 21.74C33.03 21.74 32.03 23.39 31.73 24.55L31.73 27.71C31.73 27.71 31.29 28.24 30.42 28.76Z" fill="#F8CBC9"/><path d="M20.57 23.25C20.57 23.25 27.17 24.4 30.42 22.69 30.71 23.19 26.8 25.2 21.38 24.74L20.58 24.89 20.58 23.25Z" fill="#E4B8B7"/><path d="M13.6 16.27C13.6 16.27 10.65 6.69 16.91 3.34L16.85 3.37C16.85 3.37 12.2 3.96 11.21 11.18 10.37 16.7 14.01 19.92 14.01 19.92 14.01 19.92 13.49 19.29 13.69 18.22 13.89 17.15 13.6 16.27 13.6 16.27Z" fill="#1B2B32"/></svg>